<svg xmlns="http://www.w3.org/2000/svg" width="47" height="45" viewBox="0 0 47 45"><g><g><path fill="#fff" d="M46.29 30.346l-12.472 12.31-6.303 1.696-.422.416a.814.814 0 0 1-1.139.005l-.015.003.004-.016a.791.791 0 0 1 .005-1.124l.42-.414 1.719-6.223 12.472-12.31a2.445 2.445 0 0 1 3.42 0l2.31 2.28a2.368 2.368 0 0 1 0 3.377zM33.397 40.809l8.3-8.194-3.438-3.393-8.3 8.193zm-5.15 1.688l3.589-.966-2.61-2.576zM45.144 28.1l-2.31-2.28a.808.808 0 0 0-1.13.002l-2.3 2.27 3.438 3.393 2.301-2.27a.781.781 0 0 0 0-1.115zM24.96 25.114l.158.185v3.215a3.708 3.708 0 0 1-1.961 3.26l-7.23 3.893a5.601 5.601 0 0 0-2.965 4.93v1.79h8.914c.448 0 .81.358.81.8 0 .442-.362.8-.81.8H-.004V40.95a6.324 6.324 0 0 1 3.348-5.566l5.391-3.338c.602-.325.95-.902.95-1.532V28.32c-.641-.66-2.285-2.54-2.954-5.027a2.84 2.84 0 0 1-1.062-2.211v-2.763c0-.647.285-1.299.81-1.864v-3.662c.005-.116.495-7.199 8.914-7.199 1.86 0 3.496.358 4.885 1.068.118-1.059.51-2.534 1.673-3.843C23.615.945 26.316-.005 29.98-.005c3.664 0 6.365.95 8.03 2.824 1.918 2.16 1.74 4.779 1.694 5.219v4.255c.52.583.81 1.33.81 2.1v3.199c0 1.404-.921 2.63-2.295 3.047a.815.815 0 0 1-1.013-.528.798.798 0 0 1 .536-1c.689-.21 1.152-.821 1.152-1.519v-3.2c0-.448-.192-.867-.543-1.18l-.267-.238.007-5.085c.002-.02.263-2.272-1.315-4.032-1.345-1.502-3.631-2.263-6.796-2.263-3.176 0-5.468.767-6.81 2.279-1.308 1.473-1.343 3.243-1.316 3.82l.022.017v5.264l-.267.238a1.57 1.57 0 0 0-.543 1.18v3.2c0 .54.28 1.041.75 1.341l.277.176.073.317c.062.265.135.524.211.776l.015.05.045.142c.075.234.152.461.235.679.045.12.088.226.13.33.017.041.033.082.05.12.044.109.09.214.134.314l.042.092c.1.224.203.439.306.642v.001c.195.38.389.724.572 1.027l.02.032c.086.141.17.274.25.397l.01.018c.17.26.32.474.441.64l.003.004c.057.078.108.145.15.2l.016.02c.082.105.132.165.134.168zm-1.464 3.4v-2.647l-.057-.078-.102-.136c-.14-.19-.31-.432-.507-.732l-.069-.108a17.71 17.71 0 0 1-.335-.546 18.804 18.804 0 0 1-.384-.685c-.051-.096-.103-.19-.154-.29l-.038-.08c-.08-.16-.159-.326-.238-.497-.021-.046-.043-.087-.064-.133l-.045-.102c-.017-.037-.032-.079-.049-.117-.07-.16-.136-.322-.203-.489-.026-.065-.053-.123-.078-.19-.06-.158-.11-.302-.159-.442-.03-.085-.057-.17-.085-.257l-.037-.111-.066-.21c-.055-.178-.106-.36-.155-.543l-.013-.043a3.213 3.213 0 0 1-.89-1.102l-.003-.003c-.062-.128-.098-.266-.142-.4-.03-.09-.074-.175-.096-.268a3.178 3.178 0 0 1-.082-.714v-3.2c0-.77.292-1.516.81-2.1V8.509c-1.29-.873-2.923-1.315-4.862-1.315-6.858 0-7.28 5.416-7.295 5.646l.002 4.304-.267.237c-.345.309-.544.651-.544.94v2.762c0 .43.223.828.596 1.067l.277.176.074.316c.636 2.737 2.79 4.744 2.81 4.763l.258.238v2.871a3.309 3.309 0 0 1-1.751 2.913l-5.39 3.337c-1.587.855-2.546 2.45-2.546 4.186v1.437h9.725v-1.79c0-2.642 1.46-5.07 3.81-6.334l4.559-2.455.526-.283 2.144-1.154a2.11 2.11 0 0 0 1.116-1.856z"/></g></g></svg>