<svg xmlns="http://www.w3.org/2000/svg" width="53" height="45" viewBox="0 0 53 45"><g><g><path fill="#fff" d="M53 10.596v31.747A2.661 2.661 0 0 1 50.34 45H2.66a2.661 2.661 0 0 1-2.66-2.657V10.596a2.661 2.661 0 0 1 2.66-2.655h1.758V5.293h8.833v2.648h3.533V2.828c0-1.56 1.27-2.829 2.832-2.829h13.77a2.833 2.833 0 0 1 2.832 2.83V7.94h3.533V5.293h8.833v2.648h1.758A2.661 2.661 0 0 1 53 10.596zM41.517 7.941h5.3v-.883h-5.3zm-22.967 0h15.9V2.828c0-.587-.478-1.064-1.065-1.064h-13.77c-.587 0-1.065.477-1.065 1.064zM8.833 9.706v33.529h35.334V9.705zM6.183 7.94h5.3v-.883h-5.3zM2.66 43.235h4.408V9.705H2.659c-.492 0-.892.4-.892.891v31.747c0 .492.4.892.892.892zm48.574-32.639c0-.491-.4-.89-.892-.89h-4.408v33.529h4.408c.492 0 .892-.4.892-.892z"/></g></g></svg>