<svg xmlns="http://www.w3.org/2000/svg" width="45" height="45" viewBox="0 0 45 45"><g><g><path fill="#fff" d="M22.633 45.01c-3.236 0-6.037-2.967-6.923-7.266H.935a.926.926 0 0 1-.852-.566.938.938 0 0 1 .182-1.013c.954-1.002 1.861-1.779 2.662-2.465 1.969-1.688 3.158-2.707 3.158-5.338V19.66c.038-7.284 4.73-13.785 11.319-15.92a.924.924 0 0 1 .183-.083c.03-.01.16-.05.381-.108.34-1.519 1.553-3.56 4.53-3.56 2.961 0 4.186 2.127 4.53 3.68a15.459 15.459 0 0 1 .761.237c6.521 2.203 11.142 8.606 11.177 15.75v8.993c0 2.55 1.051 3.414 2.957 4.979.84.69 1.792 1.471 2.811 2.539a.936.936 0 0 1-.67 1.578H29.556c-.886 4.298-3.685 7.265-6.923 7.265zm-4.935-6.93c.83 2.991 2.799 5.064 4.935 5.064 2.137 0 4.104-2.073 4.934-5.065zM3.253 35.877h38.468c-.336-.287-.661-.553-.969-.806-2.033-1.67-3.64-2.987-3.64-6.423V19.66c-.03-6.37-4.16-12.08-9.979-14.01-3.623-1.1-6.774-.7-8.187-.411C12.6 6.776 7.977 12.833 7.942 19.665v8.698c0 3.492-1.766 5.004-3.811 6.757-.28.24-.575.49-.878.758zM22.5 1.853c-1.402 0-2.098.669-2.442 1.32 1.268-.146 2.949-.2 4.866.08-.353-.687-1.05-1.4-2.424-1.4z"/></g></g></svg>