<svg xmlns="http://www.w3.org/2000/svg" width="25" height="25" viewBox="0 0 25 25"><g><g><path fill="#777" d="M25 20.968a.807.807 0 0 1-.806.806h-3.226v2.42a.807.807 0 0 1-1.613 0v-2.42H4.032c-.068 0-.13-.023-.193-.039-.036-.009-.073-.007-.108-.021a.804.804 0 0 1-.445-.446c-.012-.03-.01-.062-.018-.092-.019-.067-.042-.134-.042-.208V4.838H.806a.807.807 0 0 1 0-1.612h2.42V.806a.807.807 0 0 1 1.613 0v2.42h15.016l1.326-1.388a.813.813 0 1 1 1.15 1.151l-1.363 1.428V20.16h3.226c.445 0 .806.361.806.807zM4.839 18.944L18.314 4.838H4.839zm14.516-12.84L5.927 20.162h13.428z"/></g></g></svg>