<svg xmlns="http://www.w3.org/2000/svg" width="25" height="25" viewBox="0 0 25 25"><g><g><path fill="#777" d="M20.52 4.48a2.32 2.32 0 0 1-1.638 3.955 2.319 2.319 0 0 1 0-4.633c.62 0 1.2.24 1.639.678zm-1.092 1.092a.767.767 0 0 0-.546-.226.773.773 0 1 0 .546 1.318.773.773 0 0 0 0-1.092zm2.73 6.006l-2.312 2.313-.728 5.825-4.292 4.291-1.456-3.64-.81.81-1.176-1.175-2.548 1.82-5.658-5.658 1.82-2.548-1.175-1.175.81-.81-3.64-1.457 4.291-4.291 5.825-.728 2.313-2.313A9.675 9.675 0 0 1 20.312 0c1.228 0 2.433.224 3.58.665l.32.123.124.32c1.399 3.64.544 7.749-2.177 10.47zM5.822 10.442L9.33 6.934l-3.328.416L3.74 9.61zm4.456 8.453l-4.172-4.172-.91 1.274 3.808 3.808zm7.79-3.225l-3.51 3.509.833 2.08 2.26-2.26zm4.945-13.681a8.386 8.386 0 0 0-2.7-.445 8.14 8.14 0 0 0-5.798 2.39L6.007 12.44l2.73 2.73 6.007-6.007 1.092 1.092-6.007 6.007 2.73 2.73 8.508-8.507c2.21-2.21 2.955-5.511 1.945-8.497zM2.184 21.723l2.184-2.184 1.092 1.092-2.184 2.184zM5.461 25l-1.093-1.092 2.185-2.184 1.092 1.092zM0 19.539l2.184-2.184 1.092 1.092-2.184 2.184z"/></g></g></svg>