<svg xmlns="http://www.w3.org/2000/svg" width="20" height="25" viewBox="0 0 20 25"><g><g><path fill="#777" d="M15.658 9.879c0 3.082-2.538 5.59-5.658 5.59-3.12 0-5.658-2.508-5.658-5.59S6.88 4.289 10 4.289c3.12 0 5.658 2.508 5.658 5.59zm-1.58 0c0-2.222-1.829-4.03-4.078-4.03-2.25 0-4.079 1.808-4.079 4.03 0 2.222 1.83 4.03 4.079 4.03 2.25 0 4.079-1.808 4.079-4.03zm4.094 3.272a7.655 7.655 0 0 1-.052.122 3.827 3.827 0 0 1-1.049 3.592 3.912 3.912 0 0 1-3.124 1.115V25L10 23.7 6.053 25v-7.02a3.912 3.912 0 0 1-3.124-1.116 3.827 3.827 0 0 1-1.05-3.59 7.838 7.838 0 0 1-.05-.123A3.847 3.847 0 0 1-.002 9.88C0 8.54.694 7.313 1.83 6.607l.05-.122a3.827 3.827 0 0 1 1.05-3.592 3.912 3.912 0 0 1 2.767-1.132c.293 0 .584.032.868.096.041-.018.082-.035.124-.051A3.916 3.916 0 0 1 10 0c1.355 0 2.598.684 3.312 1.806l.124.05c.284-.063.575-.095.868-.095 1.045 0 2.028.402 2.767 1.132a3.827 3.827 0 0 1 1.05 3.592l.05.122A3.847 3.847 0 0 1 20 9.879a3.847 3.847 0 0 1-1.828 3.272zm-5.804 5.82a3.937 3.937 0 0 1-2.368.787c-.873 0-1.7-.285-2.368-.787v3.865l2.368-.78 2.368.78zm6.053-9.092a2.3 2.3 0 0 0-1.252-2.044l-.27-.14-.104-.282a7.1 7.1 0 0 0-.225-.536l-.128-.273.09-.286a2.284 2.284 0 0 0-.577-2.322 2.333 2.333 0 0 0-1.651-.675 2.37 2.37 0 0 0-.699.105l-.29.09-.277-.127a7.425 7.425 0 0 0-.542-.223l-.285-.104-.142-.265A2.336 2.336 0 0 0 10 1.56c-.87 0-1.664.474-2.07 1.237l-.14.265-.286.104c-.18.065-.362.14-.542.223l-.277.126-.29-.09a2.37 2.37 0 0 0-.699-.104c-.623 0-1.21.24-1.65.675a2.285 2.285 0 0 0-.578 2.322l.09.286-.128.273c-.083.179-.16.359-.225.536l-.105.282-.269.14A2.3 2.3 0 0 0 1.58 9.879a2.3 2.3 0 0 0 1.252 2.044l.27.14.104.282c.066.177.142.357.225.536l.128.273-.09.287a2.285 2.285 0 0 0 .577 2.32c.441.436 1.027.676 1.651.676.238 0 .473-.035.699-.105l.29-.09.276.127c.18.083.363.158.543.223l.285.104.142.265A2.336 2.336 0 0 0 10 18.198c.87 0 1.663-.474 2.07-1.237l.14-.266.286-.103c.18-.065.362-.14.543-.223l.276-.126.29.09c.226.069.461.104.699.104.623 0 1.21-.24 1.65-.675a2.285 2.285 0 0 0 .578-2.321l-.09-.287.128-.273c.083-.178.159-.359.225-.536l.105-.282.269-.14A2.3 2.3 0 0 0 18.42 9.88z"/></g></g></svg>