<svg width="30" height="20" viewBox="0 0 30 20" fill="none" xmlns="http://www.w3.org/2000/svg">
<path d="M30 0V2H28.043V11.333H26.087V2H24.13V7.73L15 10.716L5.87 7.73V2H0V0H30ZM22.174 2H7.826V6.27L15 8.617L22.174 6.27V2ZM26.087 13.333H28.043V17.333H26.087V13.333ZM24.13 15.667C24.13 18.056 22.229 20 19.891 20C17.891 20 16.211 18.575 15.767 16.667H14.233C13.79 18.575 12.109 20 10.109 20C7.771 20 5.869 18.056 5.869 15.667C5.869 13.277 7.771 11.333 10.109 11.333C12.109 11.333 13.789 12.758 14.233 14.667H15.767C16.21 12.757 17.891 11.333 19.891 11.333C22.229 11.333 24.131 13.277 24.131 15.667H24.13ZM12.391 15.667C12.391 14.38 11.367 13.333 10.109 13.333C8.85 13.333 7.826 14.38 7.826 15.667C7.826 16.953 8.85 18 10.109 18C11.367 18 12.391 16.953 12.391 15.667V15.667ZM22.174 15.667C22.174 14.38 21.15 13.333 19.891 13.333C18.633 13.333 17.609 14.38 17.609 15.667C17.609 16.953 18.633 18 19.891 18C21.15 18 22.174 16.953 22.174 15.667Z" fill="#777777"/>
</svg>
