<svg xmlns="http://www.w3.org/2000/svg" width="21" height="25" viewBox="0 0 21 25"><g><g><path fill="#777" d="M19.052 25H1.948A1.945 1.945 0 0 1 0 23.062V1.937C0 .87.874 0 1.948 0H14.35c.844 0 1.91.465 2.482 1.082l3.193 3.45c.556.6.975 1.667.975 2.483v16.047A1.945 1.945 0 0 1 19.052 25zM1.948 1.66a.281.281 0 0 0-.278.277v21.125c0 .15.127.277.278.277h17.104c.15 0 .278-.127.278-.277V7.015c0-.402-.259-1.063-.533-1.359l-3.194-3.449c-.255-.276-.876-.546-1.253-.546zM4.42 9.106a.833.833 0 0 1-.835-.83V4.732c0-.458.374-.83.835-.83.46 0 .835.372.835.83v3.543c0 .459-.374.83-.835.83zm3.232 0a.833.833 0 0 1-.835-.83V4.732c0-.458.374-.83.835-.83.46 0 .835.372.835.83v3.543c0 .459-.374.83-.835.83zm3.232 0a.833.833 0 0 1-.835-.83V4.732c0-.458.374-.83.835-.83.46 0 .834.372.834.83v3.543c0 .459-.373.83-.834.83zm3.232 0a.833.833 0 0 1-.835-.83V4.732c0-.458.373-.83.835-.83.46 0 .834.372.834.83v3.543c0 .459-.373.83-.834.83z"/></g></g></svg>